<svg width="360" height="104" viewBox="0 0 360 104" fill="none" xmlns="http://www.w3.org/2000/svg">
<rect width="360" height="104" fill="#36D6AD"/>
<path d="M66.0738 58.872H73.7698V57.656H68.2658C70.3298 55.976 73.4338 53.528 73.4338 50.648C73.4338 48.504 72.0258 47.224 69.8498 47.224C67.7698 47.224 66.2178 48.504 66.1218 50.968H67.5298C67.5938 49.512 68.3618 48.472 69.8658 48.472C71.4338 48.472 71.9938 49.432 71.9938 50.712C71.9938 53.08 69.1138 55.384 66.0738 57.832V58.872ZM75.4529 53.096C75.4529 56.456 76.2849 59 79.4849 59C82.6689 59 83.5009 56.456 83.5009 53.096C83.5009 49.784 82.6689 47.256 79.4849 47.256C76.2849 47.256 75.4529 49.784 75.4529 53.096ZM82.0609 53.096C82.0609 55.592 81.7569 57.672 79.4849 57.672C77.1969 57.672 76.8929 55.592 76.8929 53.096C76.8929 50.696 77.1969 48.584 79.4849 48.584C81.7569 48.584 82.0609 50.696 82.0609 53.096ZM85.3238 58.872H93.0198V57.656H87.5158C89.5798 55.976 92.6838 53.528 92.6838 50.648C92.6838 48.504 91.2758 47.224 89.0998 47.224C87.0198 47.224 85.4678 48.504 85.3718 50.968H86.7798C86.8438 49.512 87.6118 48.472 89.1158 48.472C90.6838 48.472 91.2438 49.432 91.2438 50.712C91.2438 53.08 88.3638 55.384 85.3238 57.832V58.872ZM94.5269 58.872H102.223V57.656H96.7189C98.7829 55.976 101.887 53.528 101.887 50.648C101.887 48.504 100.479 47.224 98.3029 47.224C96.2229 47.224 94.6709 48.504 94.5749 50.968H95.9829C96.0469 49.512 96.8149 48.472 98.3189 48.472C99.8869 48.472 100.447 49.432 100.447 50.712C100.447 53.08 97.5669 55.384 94.5269 57.832V58.872ZM108.108 53.752H114.492V52.52H108.108V53.752ZM124.962 47.848H121.49V59H124.962C128.626 59 130.882 56.904 130.882 53.448C130.882 49.992 128.626 47.848 124.962 47.848ZM122.946 57.8V49.032H124.962C127.874 49.032 129.394 50.728 129.394 53.448C129.394 56.168 127.874 57.8 124.962 57.8H122.946ZM136.53 51.32C138.034 51.32 139.314 52.264 139.298 53.976H133.762C133.922 52.264 135.106 51.32 136.53 51.32ZM140.626 56.296H139.058C138.738 57.24 137.906 57.912 136.594 57.912C135.106 57.912 133.858 56.936 133.746 55.16H140.754C140.786 54.856 140.802 54.6 140.802 54.28C140.802 51.88 139.138 50.088 136.594 50.088C134.034 50.088 132.258 51.832 132.258 54.6C132.258 57.384 134.098 59.144 136.594 59.144C138.77 59.144 140.178 57.896 140.626 56.296ZM149.028 56.616C148.964 53.48 143.876 54.616 143.876 52.536C143.876 51.832 144.516 51.32 145.588 51.32C146.756 51.32 147.428 51.96 147.492 52.84H148.948C148.852 51.128 147.572 50.088 145.636 50.088C143.684 50.088 142.42 51.192 142.42 52.536C142.42 55.8 147.604 54.664 147.604 56.616C147.604 57.336 146.964 57.912 145.812 57.912C144.58 57.912 143.828 57.272 143.748 56.424H142.244C142.34 58.024 143.78 59.144 145.828 59.144C147.764 59.144 149.028 58.056 149.028 56.616ZM154.812 51.32C156.316 51.32 157.596 52.264 157.58 53.976H152.044C152.204 52.264 153.388 51.32 154.812 51.32ZM158.908 56.296H157.34C157.02 57.24 156.188 57.912 154.876 57.912C153.388 57.912 152.14 56.936 152.028 55.16H159.036C159.068 54.856 159.084 54.6 159.084 54.28C159.084 51.88 157.42 50.088 154.876 50.088C152.316 50.088 150.54 51.832 150.54 54.6C150.54 57.384 152.38 59.144 154.876 59.144C157.052 59.144 158.46 57.896 158.908 56.296ZM167.421 59H168.861V53.832C168.861 51.32 167.309 50.072 165.277 50.072C164.093 50.072 163.037 50.568 162.461 51.48V50.232H161.005V59H162.461V54.152C162.461 52.264 163.485 51.336 164.973 51.336C166.445 51.336 167.421 52.248 167.421 54.04V59ZM170.2 50.232L173.64 59H175.336L178.776 50.232H177.224L174.504 57.656L171.768 50.232H170.2ZM188.529 54.6C188.529 51.832 186.593 50.088 184.097 50.088C181.617 50.088 179.665 51.832 179.665 54.6C179.665 57.384 181.553 59.144 184.033 59.144C186.529 59.144 188.529 57.384 188.529 54.6ZM181.153 54.6C181.153 52.392 182.545 51.352 184.081 51.352C185.585 51.352 187.041 52.392 187.041 54.6C187.041 56.824 185.553 57.864 184.033 57.864C182.513 57.864 181.153 56.824 181.153 54.6ZM190.443 59H191.899V47.16H190.443V59ZM193.34 50.232L196.78 59H198.476L201.916 50.232H200.364L197.644 57.656L194.908 50.232H193.34ZM203.349 59H204.805V50.232H203.349V59ZM204.101 48.808C204.629 48.808 205.061 48.376 205.061 47.816C205.061 47.256 204.629 46.824 204.101 46.824C203.541 46.824 203.109 47.256 203.109 47.816C203.109 48.376 203.541 48.808 204.101 48.808ZM206.743 54.584C206.743 57.304 208.551 59.144 210.903 59.144C212.503 59.144 213.639 58.328 214.167 57.352V59H215.639V47.16H214.167V51.8C213.559 50.792 212.295 50.088 210.919 50.088C208.551 50.088 206.743 51.848 206.743 54.584ZM214.167 54.6C214.167 56.664 212.791 57.864 211.191 57.864C209.591 57.864 208.231 56.648 208.231 54.584C208.231 52.52 209.591 51.352 211.191 51.352C212.791 51.352 214.167 52.568 214.167 54.6ZM226.419 54.6C226.419 51.832 224.483 50.088 221.987 50.088C219.507 50.088 217.555 51.832 217.555 54.6C217.555 57.384 219.443 59.144 221.923 59.144C224.419 59.144 226.419 57.384 226.419 54.6ZM219.043 54.6C219.043 52.392 220.435 51.352 221.971 51.352C223.475 51.352 224.931 52.392 224.931 54.6C224.931 56.824 223.443 57.864 221.923 57.864C220.403 57.864 219.043 56.824 219.043 54.6ZM234.055 51.848V50.232H232.599V63.16H234.055V57.384C234.599 58.28 235.735 59.144 237.335 59.144C239.687 59.144 241.495 57.304 241.495 54.584C241.495 51.848 239.687 50.088 237.335 50.088C235.735 50.088 234.583 50.92 234.055 51.848ZM240.007 54.584C240.007 56.648 238.647 57.864 237.031 57.864C235.447 57.864 234.055 56.664 234.055 54.6C234.055 52.568 235.447 51.352 237.031 51.352C238.647 51.352 240.007 52.52 240.007 54.584ZM251.732 54.6C251.732 51.832 249.796 50.088 247.3 50.088C244.82 50.088 242.868 51.832 242.868 54.6C242.868 57.384 244.756 59.144 247.236 59.144C249.732 59.144 251.732 57.384 251.732 54.6ZM244.356 54.6C244.356 52.392 245.748 51.352 247.284 51.352C248.788 51.352 250.244 52.392 250.244 54.6C250.244 56.824 248.756 57.864 247.236 57.864C245.716 57.864 244.356 56.824 244.356 54.6ZM255.102 54.232C255.102 52.2 256.158 51.576 257.55 51.576H257.934V50.072C256.542 50.072 255.598 50.68 255.102 51.656V50.232H253.646V59H255.102V54.232ZM271.368 59H272.904L268.888 47.912H267.208L263.176 59H264.712L265.608 56.52H270.472L271.368 59ZM270.056 55.336H266.024L268.04 49.704L270.056 55.336ZM274.662 59H276.118V47.16H274.662V59ZM286.375 50.232H284.919V55.048C284.919 56.936 283.911 57.864 282.407 57.864C280.935 57.864 279.959 56.952 279.959 55.176V50.232H278.519V55.368C278.519 57.88 280.103 59.128 282.119 59.128C283.287 59.128 284.359 58.616 284.919 57.704V59H286.375V50.232ZM290.29 54.232C290.29 52.2 291.346 51.576 292.738 51.576H293.122V50.072C291.73 50.072 290.786 50.68 290.29 51.656V50.232H288.834V59H290.29V54.232ZM294.258 54.584C294.258 57.304 296.066 59.144 298.402 59.144C300.018 59.144 301.154 58.312 301.682 57.368V59H303.154V50.232H301.682V51.832C301.17 50.92 300.05 50.088 298.418 50.088C296.066 50.088 294.258 51.848 294.258 54.584ZM301.682 54.6C301.682 56.664 300.306 57.864 298.706 57.864C297.106 57.864 295.746 56.648 295.746 54.584C295.746 52.52 297.106 51.352 298.706 51.352C300.306 51.352 301.682 52.568 301.682 54.6ZM307.039 58.104C307.039 57.544 306.607 57.112 306.079 57.112C305.519 57.112 305.087 57.544 305.087 58.104C305.087 58.664 305.519 59.096 306.079 59.096C306.607 59.096 307.039 58.664 307.039 58.104Z" fill="white"/>
</svg>
